# xmcd
#
# Track frame offsets: 
#        150
#        3940
#        18214
#        34101
#        47751
#        65600
#        88519
#        101921
#        105526
#        128794
#        149729
#        161690
#        175834
#        207082
#        222606
#
# Disc length: 3074 seconds
#
# Revision: 2
# Processed by: cddbd v1.5.2PL0 Copyright (c) Steve Scherf et al.
# Submitted via: ExactAudioCopy v0.95a4
#
DISCID=d30c000f
DTITLE=Eureka - Shackleton's Voyage
DYEAR=2009
DGENRE=Progressive Rock
TTITLE0=The Last Adventure
TTITLE1=Departure (feat. Troy Donockley)
TTITLE2=The Challenge (feat. Billy Sherwood)
TTITLE3=Grytviken Whaling Station
TTITLE4=Heading South (feat. Yogi Lang)
TTITLE5=Icebound
TTITLE6=Plenty of Time
TTITLE7=The Turning Point
TTITLE8=Going Home (feat. Billy Sherwood)
TTITLE9=Into the Lifeboats
TTITLE10=Elephant Island
TTITLE11=Will You Ever Return? (feat. Kalema)
TTITLE12=In Search of Relief
TTITLE13=The Rescue
TTITLE14=We Had Seen God!
EXTD=
EXTT0=
EXTT1=
EXTT2=
EXTT3=
EXTT4=
EXTT5=
EXTT6=
EXTT7=
EXTT8=
EXTT9=
EXTT10=
EXTT11=
EXTT12=
EXTT13=
EXTT14=
PLAYORDER=
